<svg width="23" height="22" viewBox="0 0 23 22" fill="none" xmlns="http://www.w3.org/2000/svg">
<path d="M9.26074 20.35C9.26074 20.9946 8.75114 21.5 8.14355 21.5C7.53597 21.5 7.02637 20.9946 7.02637 20.35C7.02637 19.7053 7.53597 19.2 8.14355 19.2C8.75114 19.2 9.26074 19.7053 9.26074 20.35Z" fill="#BDBDBD" stroke="white"/>
<path d="M19.0859 20.35C19.0859 20.9946 18.5763 21.5 17.9688 21.5C17.3612 21.5 16.8516 20.9946 16.8516 20.35C16.8516 19.7053 17.3612 19.2 17.9688 19.2C18.5763 19.2 19.0859 19.7053 19.0859 20.35Z" fill="#BDBDBD" stroke="white"/>
<path d="M21.9475 2.78255L21.9559 2.79256C21.9783 2.81927 21.995 2.85158 22.0041 2.88723C22.0128 2.92167 22.014 2.95778 22.0076 2.99281L19.7306 13.2529L19.7305 13.2535C19.7184 13.3084 19.6884 13.3552 19.6482 13.3872C19.6083 13.419 19.5603 13.4346 19.5124 13.4334L19.5124 13.4333H19.5H8.40247H8.21922L8.07937 13.5517L6.34719 15.0184L6.27753 15.0773L6.2332 15.1571C6.1511 15.3049 6.10809 15.4711 6.10766 15.6397C6.10723 15.8083 6.1494 15.9747 6.23074 16.1229C6.31211 16.2711 6.43024 16.3967 6.57468 16.4865C6.71918 16.5763 6.88476 16.627 7.05537 16.633L7.06407 16.6333H7.07278H19.1837C19.2385 16.6333 19.293 16.6554 19.3349 16.698C19.377 16.7411 19.4025 16.8015 19.4025 16.8666C19.4025 16.9317 19.377 16.9921 19.3349 17.0352C19.293 17.0779 19.2385 17.0999 19.1837 17.0999H7.18778H7.17517L7.16257 17.1006C6.93414 17.1121 6.70593 17.069 6.49604 16.9742L6.29031 17.4299L6.49604 16.9742C6.28765 16.8801 6.10259 16.7375 5.95596 16.5569C5.75322 16.2925 5.64561 15.963 5.65344 15.6246C5.66118 15.29 5.78122 14.9698 5.99127 14.7171L6.05383 14.6532L7.21326 13.6867L7.46949 13.4731L7.37064 13.1544L4.07158 2.52111L3.99379 2.27038L3.74322 2.19205L1.1633 1.38551C1.16325 1.38549 1.1632 1.38548 1.16315 1.38546C1.10917 1.36849 1.0609 1.32933 1.03165 1.27299C1.0022 1.21629 0.995713 1.14887 1.01451 1.08647C1.03324 1.02428 1.07445 0.975307 1.12556 0.947671C1.15087 0.93399 1.17811 0.92576 1.20575 0.923085C1.23338 0.920411 1.26135 0.923292 1.28819 0.931705C1.28819 0.931706 1.28819 0.931707 1.2882 0.931709L4.23506 1.85571L4.23601 1.856C4.26852 1.86612 4.29911 1.88441 4.3248 1.91022C4.35031 1.93585 4.37018 1.96815 4.3819 2.00478C4.382 2.00509 4.38211 2.00541 4.38221 2.00573L7.66608 12.6145L7.77508 12.9666H8.14372H18.925H19.3277L19.4135 12.5731L21.3326 3.77314L21.4648 3.16661H20.844H7.65389L7.50524 2.69994H21.7834C21.8137 2.70032 21.8439 2.70744 21.872 2.72122L22.0921 2.27228L21.872 2.72123C21.9005 2.7352 21.9265 2.75587 21.9477 2.78244L21.9475 2.78255Z" fill="#BDBDBD" stroke="white"/>
</svg>
